<?xml version="1.0" standalone="no"?><!DOCTYPE svg PUBLIC "-//W3C//DTD SVG 1.1//EN" "http://www.w3.org/Graphics/SVG/1.1/DTD/svg11.dtd"><svg t="1764056175257" class="icon" viewBox="0 0 1024 1024" version="1.1" xmlns="http://www.w3.org/2000/svg" p-id="2371" xmlns:xlink="http://www.w3.org/1999/xlink" width="200" height="200"><path d="M387.573333 748.885333a78.026667 78.026667 0 1 1-78.026666-78.026666 78.016 78.016 0 0 1 78.026666 78.026666z m436.970667 0a78.026667 78.026667 0 1 1-78.026667-78.026666 78.016 78.016 0 0 1 78.026667 78.026666z m69.738667-265.909333L824.533333 358.730667c-14.261333-17.194667-23.893333-31.210667-46.816-31.210667H668.48v-93.642667A31.274667 31.274667 0 0 0 637.269333 202.666667H137.877333A31.274667 31.274667 0 0 0 106.666667 233.877333v468.181334a31.274667 31.274667 0 0 0 31.210666 31.210666h62.24a110.453333 110.453333 0 0 1 218.848 0h218.122667a110.464 110.464 0 0 1 218.858667 0h31.029333a31.274667 31.274667 0 0 0 31.210667-31.210666V545.994667c0-29.568-23.893333-63.029333-23.893334-63.029334zM699.733333 545.994667v-156.053334h76.352c5.034667 0 12.010667 7.370667 12.010667 7.370667L853.770667 519.466667a57.6 57.6 0 0 1 12.128 26.517333z m0 0" fill="#1C87FF" p-id="2372"></path></svg>